<?xml version="1.0" standalone="no"?>
<!DOCTYPE svg PUBLIC "-//W3C//DTD SVG 20010904//EN"
 "http://www.w3.org/TR/2001/REC-SVG-20010904/DTD/svg10.dtd">
<svg version="1.0" xmlns="http://www.w3.org/2000/svg"
 width="141.000000pt" height="141.000000pt" viewBox="0 0 141.000000 141.000000"
 preserveAspectRatio="xMidYMid meet">

<g transform="translate(0.000000,141.000000) scale(0.100000,-0.100000)"
fill="#000000" stroke="none">
<path d="M323 1384 c-3 -9 -2 -24 4 -33 9 -14 51 -16 383 -16 332 0 374 2 383
16 6 9 7 24 4 33 -6 14 -44 16 -387 16 -343 0 -381 -2 -387 -16z"/>
<path d="M330 1275 c-6 -8 -10 -22 -8 -32 3 -17 26 -18 388 -18 362 0 385 1
388 18 9 46 2 47 -388 47 -309 0 -369 -2 -380 -15z"/>
<path d="M382 1188 c-7 -7 -12 -40 -12 -85 l0 -73 -39 0 c-96 0 -159 -98 -116
-180 28 -55 123 -79 173 -44 24 17 52 64 52 89 0 24 -67 21 -75 -4 -13 -42
-81 -37 -91 6 -5 20 -2 31 16 45 21 17 49 18 420 18 376 0 399 -1 421 -19 20
-16 22 -23 14 -47 -8 -23 -17 -30 -43 -32 -26 -3 -34 1 -44 22 -9 20 -18 26
-45 26 -38 0 -42 -14 -18 -60 21 -40 53 -60 98 -60 73 0 127 50 127 117 0 64
-63 123 -131 123 l-38 0 -3 76 c-3 81 -17 104 -52 91 -13 -5 -16 -22 -16 -87
l0 -80 -270 0 -269 0 -3 83 c-3 73 -5 82 -23 85 -11 1 -26 -3 -33 -10z"/>
<path d="M248 1126 c-52 -19 -83 -40 -111 -78 -100 -135 -29 -332 133 -367 55
-12 104 -2 108 23 6 29 -16 43 -71 48 -64 5 -100 29 -127 84 -25 51 -25 94 0
144 23 45 51 67 112 85 45 13 59 35 38 60 -15 18 -34 18 -82 1z"/>
<path d="M474 1118 c-13 -43 13 -48 236 -48 223 0 249 5 236 48 -7 22 -10 22
-236 22 -226 0 -229 0 -236 -22z"/>
<path d="M1091 1126 c-22 -26 -9 -48 37 -61 61 -18 89 -40 112 -85 35 -68 21
-138 -39 -194 -24 -23 -42 -30 -86 -34 -57 -5 -79 -19 -73 -48 4 -24 54 -35
106 -23 168 37 239 241 130 374 -51 61 -161 103 -187 71z"/>
<path d="M502 908 c-9 -9 -12 -99 -12 -344 0 -290 2 -333 16 -345 11 -9 20
-10 32 -2 15 9 17 45 20 343 2 333 0 360 -32 360 -7 0 -17 -5 -24 -12z"/>
<path d="M622 908 c-9 -9 -12 -99 -12 -344 0 -290 2 -333 16 -345 11 -9 20
-10 32 -2 15 9 17 45 20 343 2 333 0 360 -32 360 -7 0 -17 -5 -24 -12z"/>
<path d="M752 908 c-9 -9 -12 -99 -12 -344 0 -290 2 -333 16 -345 11 -9 20
-10 32 -2 15 9 17 45 20 343 2 333 0 360 -32 360 -7 0 -17 -5 -24 -12z"/>
<path d="M872 908 c-9 -9 -12 -99 -12 -344 0 -290 2 -333 16 -345 11 -9 20
-10 32 -2 15 9 17 45 20 343 2 333 0 360 -32 360 -7 0 -17 -5 -24 -12z"/>
<path d="M392 358 c-17 -17 -17 -229 0 -246 17 -17 619 -17 636 0 17 17 17
229 0 246 -16 16 -23 15 -42 -4 -12 -11 -16 -36 -16 -95 l0 -79 -260 0 -260 0
0 79 c0 59 -4 84 -16 95 -19 19 -26 20 -42 4z"/>
<path d="M330 55 c-6 -8 -10 -22 -8 -32 3 -17 26 -18 388 -18 362 0 385 1 388
18 9 46 2 47 -388 47 -309 0 -369 -2 -380 -15z"/>
</g>
</svg>
